<svg id="Layer_1" data-name="Layer 1" xmlns="http://www.w3.org/2000/svg" viewBox="0 0 458.8 324.76"><defs><style>.cls-1{fill:#1d33ff;}.cls-2{fill:#32d6ab;}</style></defs><g id="Layer_2" data-name="Layer 2"><g id="Layer_1-2" data-name="Layer 1-2"><path class="cls-1" d="M214.77,15.36l-22.4,22.4c-1.8,1.48-3.53,3-5.26,4.59a154.79,154.79,0,0,0-15.24,15.91L22.78,207.35a10.6,10.6,0,0,1-15,.06A10.46,10.46,0,0,1,5,202.52,162.55,162.55,0,0,1,34.73,62,157.3,157.3,0,0,1,53,42.35,162.43,162.43,0,0,1,213,8.09a4.39,4.39,0,0,1,1.77,7.27Z" transform="translate(0.02 0.08)"/><path class="cls-1" d="M314.62,218.62c-.6,1.69-1.23,3.35-1.94,5-.57,1.45-1.17,2.83-1.8,4.24-.5,1.12-1,2.26-1.52,3.38a.14.14,0,0,1-.07.11c-.56,1.23-1.16,2.47-1.8,3.67-.32.71-.67,1.38-1.06,2.09-.6,1.19-1.23,2.39-1.9,3.55-.54,1-1.06,2-1.63,2.9-2.18,3.81-4.55,7.55-7.06,11.15-.66,1-1.34,1.94-2,2.86q-3,4.13-6.24,8.08c-1.07,1.31-2.2,2.61-3.32,3.88-.14.18-.28.35-.42.5-1.14,1.27-2.27,2.51-3.43,3.74-2.51,2.65-5.08,5.22-7.77,7.7-.11.1-.25.21-.35.31-1.2,1.13-2.43,2.22-3.67,3.24a157.64,157.64,0,0,1-14.72,11.41c-1.4.95-2.82,1.87-4.27,2.78A146.32,146.32,0,0,1,236.06,307c-.92.51-1.83,1-2.75,1.42-1.3.63-2.61,1.24-3.92,1.83a162.76,162.76,0,0,1-142.18-4h0Q83,304.08,79,301.67a9.51,9.51,0,0,1-1.83-14.9l67.32-67.25,33.31-33.32a73.83,73.83,0,0,1,103.93-.45c-.51-.22-1-.44-1.52-.64,1.15.62,1.95,1,2,1.09Z" transform="translate(0.02 0.08)"/><path class="cls-2" d="M382.4,286.41a9.44,9.44,0,0,1,0,13.34,9.75,9.75,0,0,1-1.83,1.42h0a162.61,162.61,0,0,1-151.18,9.07c1.3-.6,2.61-1.2,3.92-1.84.91-.45,1.83-.91,2.75-1.41a150,150,0,0,0,13.55-7.76c1.45-.92,2.86-1.84,4.27-2.79A158,158,0,0,0,268.6,285c1.23-1,2.47-2.12,3.67-3.25.1-.1.24-.21.35-.31,2.68-2.47,5.26-5.05,7.76-7.7,1.17-1.23,2.3-2.47,3.43-3.74a4.93,4.93,0,0,0,.42-.49c1.13-1.27,2.26-2.58,3.32-3.88,2.19-2.65,4.27-5.33,6.24-8.08.71-.92,1.38-1.87,2-2.86,2.51-3.6,4.87-7.34,7.06-11.15.56-1,1.13-1.91,1.62-2.9.67-1.16,1.31-2.36,1.91-3.56.39-.71.74-1.38,1.06-2.09.63-1.19,1.23-2.43,1.8-3.67,0,0,.07-.07.07-.1.53-1.13,1-2.26,1.51-3.39.64-1.41,1.24-2.79,1.8-4.23.71-1.66,1.35-3.32,1.95-5l65.95,66Z" transform="translate(0.02 0.08)"/><path class="cls-2" d="M458.78,162.34a162.64,162.64,0,0,1-4.4,37.68,11.37,11.37,0,0,1-19.1,5.45l-54.71-54.71L296.93,67.12l.15-.21L272.51,42.35,245.23,15.09A4.47,4.47,0,0,1,247,7.66,162.37,162.37,0,0,1,458.78,162.34Z" transform="translate(0.02 0.08)"/></g></g></svg>